# xmcd
#
# Track frame offsets:
#	150
#	12852
#	24394
#	37368
#	49639
#	61501
#	74921
#	89034
#	102207
#	115268
#	127080
#	141448
#	154215
#	166672
#	180312
#
# Disc length: 2596
#
# Revision: 3
# Processed by: cddbd v1.5.1PL0 Copyright (c) Steve Scherf et al.
# Submitted via: VisiTrax 2.9.5.181 - For more info visit www.synapsa.com
# Normalized: r2:DSETVAR1
#
DISCID=d00a220f
DTITLE=Various Artist - Blues Legends 0073
DYEAR=1997
DGENRE=Blues
TTITLE0=Champion jack Dupree - Warehoose man blues
TTITLE1=Sonny Boy Williamson - Got the bottle up and  go
TTITLE2=Brownie McGhee - Bron for bad luck
TTITLE3=Big Joe Turner - Rebecca
TTITLE4=Brownie McGhee - I'm calling Daisy
TTITLE5=Sonny Boy Williamson - Sugar mama blues
TTITLE6=Blind Willie McTell - Stomp down rider
TTITLE7=Lonnie Johnson - Mean old bed bug blues
TTITLE8=Bukka White - Strangee place blues
TTITLE9=Arthur 'Big Boy' Crudup - Mean old' Frisco blues
TTITLE10=Blind Willie Johnson - Nobody's fault but mine
TTITLE11=Robert Johnson - Come on in my kitchen
TTITLE12=Sonny Boy Williamson - My black name
TTITLE13=Arthur 'Big Boy' Crudup - She's  gone
TTITLE14=Barbeque Bob - Barbeque blues
EXTD=
EXTT0=
EXTT1=
EXTT2=
EXTT3=
EXTT4=
EXTT5=
EXTT6=
EXTT7=
EXTT8=
EXTT9=
EXTT10=
EXTT11=
EXTT12=
EXTT13=
EXTT14=
PLAYORDER=
